<svg enable-background="new 0 0 24 24" xmlns="//www.w3.org/2000/svg" height="24px" viewBox="0 0 24 24" width="24px"  fill="red" >
<path d="M4.4,23.5c0,0-0.1,0-0.1,0c-0.2-0.1-0.4-0.3-0.4-0.5v-21c0-0.8,0.6-1.4,1.4-1.4h13.4c0.4,0,0.8,0.2,1,0.5     C20,1.3,20.1,1.8,20,2.2l-0.7,3.6c-0.1,0.6-0.7,1.1-1.4,1.1h-6.5c-0.5,0-0.8,0.4-0.8,0.8v0.8c0,0.5,0.4,0.8,0.8,0.8h5.5     c0.4,0,0.8,0.2,1,0.5c0.3,0.3,0.4,0.7,0.3,1.1c-0.1,0.6-0.7,3.4-0.7,3.7c-0.1,0.5-0.6,1.1-1.4,1.1h-4.5c-0.9,0-0.9,0-1.3,0.5     c-0.6,0.7-5.4,6.9-5.4,6.9C4.8,23.4,4.6,23.5,4.4,23.5z M5.3,1.5c-0.2,0-0.4,0.2-0.4,0.4v19.7c1.4-1.7,4-5,4.6-5.8H8.9     c-0.3,0-0.5-0.2-0.5-0.5s0.2-0.5,0.5-0.5h4.5c0,0,0,0,0,0h2.7c0.2,0,0.4-0.2,0.4-0.3c0.1-0.3,0.6-3.2,0.7-3.7     c0-0.1,0-0.3-0.1-0.3c-0.1-0.1-0.2-0.1-0.3-0.1h-5.5c-1,0-1.8-0.8-1.8-1.8V7.8c0-1,0.8-1.8,1.8-1.8h6.5c0.2,0,0.4-0.2,0.4-0.3     L19.1,2c0,0,0,0,0,0c0-0.2,0-0.3-0.1-0.3c-0.1-0.1-0.2-0.1-0.2-0.1H5.3z"/>
</svg>
