<svg id="Layer_3" style="enable-background:new 0 0 64 64;" version="1.0" viewBox="0 0 64 64" xml:space="preserve" xmlns="http://www.w3.org/2000/svg" xmlns:xlink="http://www.w3.org/1999/xlink"><path d="M61.34,47.04c-10.31-4.98-11.61-12.58-11.63-12.73c-0.08-0.6-0.09-0.69,0.28-1.03c0.44-0.41,2.21-1.56,3.38-2.31  c0.63-0.41,1.18-0.77,1.48-0.98c0.74-0.52,3-2.09,2.05-4.6c-0.46-1.2-1.55-1.88-3-1.88c-0.35,0-0.7,0.04-1.04,0.12  c-1.06,0.23-2.09,0.63-2.92,0.96c-0.38,0.15-0.75,0.29-1.05,0.39c0.12-1.91,0.33-5.31,0.05-8.51c-0.39-4.59-1.83-7.08-3.86-9.41  c-1.12-1.28-5.38-5.45-13.1-5.45c-7.71,0-11.97,4.19-13.09,5.48c-2.03,2.32-3.46,4.81-3.86,9.41c-0.27,3.13-0.07,6.41,0.05,8.37  l0.01,0.14c-0.29-0.1-0.67-0.24-1.05-0.39c-0.83-0.32-1.86-0.73-2.91-0.96c-0.34-0.08-0.69-0.12-1.05-0.12c-1.45,0-2.54,0.69-3,1.89  c-0.94,2.5,1.31,4.08,2.06,4.59c0.3,0.21,0.85,0.57,1.48,0.98c1.17,0.76,2.94,1.9,3.38,2.31c0.37,0.34,0.35,0.43,0.27,1.1  c-0.01,0.08-1.32,7.67-11.61,12.66c-0.34,0.17-1.39,0.67-1.42,1.72c-0.03,1.12,1.16,1.78,1.55,1.99c1.68,0.92,3.06,1.29,4.17,1.58  c0.84,0.22,1.51,0.4,2.06,0.75c0.27,0.17,0.33,0.46,0.42,1.11c0.09,0.65,0.2,1.53,0.99,2.07c0.73,0.5,1.74,0.54,3.15,0.6  c1.6,0.06,3.58,0.14,5.89,0.9c1.11,0.37,2.13,0.99,3.2,1.65c2.26,1.39,4.83,2.97,9.34,2.97c4.53,0,7.11-1.58,9.39-2.98  c1.06-0.65,2.06-1.26,3.15-1.62c2.31-0.76,4.29-0.84,5.89-0.9c1.4-0.05,2.42-0.09,3.14-0.6c0.79-0.54,0.91-1.43,0.99-2.08  c0.09-0.65,0.15-0.94,0.42-1.11c0.54-0.35,1.21-0.53,2.05-0.75c1.11-0.3,2.49-0.67,4.18-1.6l0,0c0.39-0.22,1.57-0.88,1.55-1.99  C62.73,47.73,61.73,47.23,61.34,47.04z M60.24,49.02c-1.47,0.81-2.67,1.13-3.73,1.41c-0.93,0.25-1.81,0.48-2.61,1  c-1.07,0.69-1.22,1.8-1.32,2.53c-0.03,0.23-0.08,0.61-0.15,0.69c-0.25,0.17-1.22,0.21-2.08,0.24c-1.63,0.06-3.86,0.15-6.44,1  c-1.31,0.43-2.4,1.11-3.57,1.82c-2.15,1.32-4.38,2.69-8.34,2.69c-3.95,0-6.16-1.36-8.3-2.67c-1.17-0.72-2.28-1.4-3.62-1.84  c-2.57-0.85-4.81-0.94-6.44-1c-0.86-0.03-1.83-0.07-2.08-0.24c-0.07-0.08-0.12-0.47-0.15-0.7c-0.1-0.73-0.25-1.84-1.32-2.53  c-0.81-0.52-1.69-0.75-2.63-1c-1.06-0.28-2.25-0.6-3.72-1.4c-0.1-0.05-0.18-0.1-0.25-0.15c0.01,0,0.01-0.01,0.02-0.01  c11.31-5.48,12.72-14.12,12.74-14.27c0.09-0.72,0.22-1.72-0.9-2.76c-0.53-0.49-1.9-1.39-3.65-2.52c-0.61-0.4-1.14-0.74-1.43-0.94  c-1.73-1.21-1.47-1.88-1.33-2.24c0.15-0.4,0.53-0.6,1.13-0.6c0.21,0,0.41,0.02,0.62,0.07c0.91,0.2,1.81,0.55,2.62,0.87  c0.61,0.24,1.13,0.44,1.56,0.55c0.19,0.05,0.38,0.08,0.6,0.08c0.51,0,0.92-0.16,1.22-0.48c0.47-0.5,0.43-1.18,0.42-1.4l-0.03-0.48  c-0.12-1.91-0.31-5.1-0.05-8.08c0.39-4.51,1.88-6.55,3.37-8.26c0.98-1.12,4.71-4.79,11.58-4.79c6.88,0,10.61,3.65,11.59,4.77  c1.49,1.71,2.99,3.76,3.37,8.26c0.27,3.13,0.05,6.53-0.07,8.35l-0.01,0.2c-0.01,0.23-0.06,0.91,0.41,1.41  c0.29,0.31,0.71,0.48,1.24,0.48c0,0,0,0,0,0c0.2,0,0.39-0.03,0.56-0.07c0.45-0.11,0.97-0.31,1.58-0.55c0.8-0.31,1.71-0.67,2.62-0.87  c0.2-0.04,0.41-0.07,0.61-0.07c0.6,0,0.98,0.2,1.13,0.59c0.14,0.36,0.4,1.04-1.33,2.25c-0.29,0.2-0.82,0.54-1.43,0.94  c-1.75,1.13-3.12,2.04-3.65,2.52c-1.13,1.04-1,2.03-0.9,2.82c0.01,0.09,1.4,8.73,12.72,14.2c0.02,0.01,0.03,0.02,0.05,0.03  C60.43,48.9,60.35,48.96,60.24,49.02z"/></svg>