<svg width="135" height="36" viewBox="0 0 135 36" fill="none" xmlns="http://www.w3.org/2000/svg">
<path d="M19.0859 1.69531V19.5811C19.0739 22.0622 18.291 24.0916 16.7373 25.6694C15.1956 27.2472 13.0999 28.1325 10.4502 28.3252L9.52881 28.3613C6.65023 28.3613 4.35579 27.5845 2.64551 26.0308C0.935221 24.4771 0.0680339 22.3392 0.0439453 19.6172V1.69531H3.47656V19.5088C3.47656 21.4118 4.00049 22.8932 5.04834 23.9531C6.09619 25.001 7.58968 25.5249 9.52881 25.5249C11.492 25.5249 12.9915 25.001 14.0273 23.9531C15.0752 22.9053 15.5991 21.4299 15.5991 19.5269V1.69531H19.0859ZM23.2412 18.0635C23.2412 15.0163 23.9458 12.5954 25.355 10.8008C26.7642 8.99414 28.631 8.09082 30.9556 8.09082C33.3403 8.09082 35.2012 8.93392 36.5381 10.6201L36.7007 8.45215H39.7539V27.5303C39.7539 30.0596 39.0011 32.0529 37.4956 33.5103C36.0021 34.9676 33.9907 35.6963 31.4614 35.6963C30.0522 35.6963 28.6732 35.3952 27.3242 34.793C25.9753 34.1908 24.9455 33.3657 24.2349 32.3179L25.9692 30.3125C27.4025 32.083 29.1549 32.9683 31.2266 32.9683C32.8525 32.9683 34.1172 32.5106 35.0205 31.5952C35.9359 30.6799 36.3936 29.3911 36.3936 27.729V26.0488C35.0566 27.5905 33.2319 28.3613 30.9194 28.3613C28.631 28.3613 26.7762 27.4399 25.355 25.5972C23.9458 23.7544 23.2412 21.2432 23.2412 18.0635ZM26.6016 18.4429C26.6016 20.647 27.0532 22.3813 27.9565 23.646C28.8599 24.8986 30.1245 25.5249 31.7505 25.5249C33.8582 25.5249 35.4059 24.5674 36.3936 22.6523V13.7275C35.3698 11.8607 33.8341 10.9272 31.7866 10.9272C30.1606 10.9272 28.89 11.5596 27.9746 12.8242C27.0592 14.0889 26.6016 15.9618 26.6016 18.4429ZM47.9561 8.45215L48.0464 10.6201C49.4797 8.93392 51.4128 8.09082 53.8457 8.09082C56.5798 8.09082 58.4406 9.13867 59.4282 11.2344C60.0786 10.2949 60.9217 9.53613 61.9575 8.95801C63.0054 8.37988 64.2399 8.09082 65.6611 8.09082C69.9489 8.09082 72.1289 10.3612 72.2012 14.9019V28H68.8589V15.1006C68.8589 13.7035 68.5397 12.6616 67.9014 11.9751C67.263 11.2765 66.1911 10.9272 64.6855 10.9272C63.445 10.9272 62.4152 11.3006 61.5962 12.0474C60.7772 12.7821 60.3014 13.7757 60.1689 15.0283V28H56.8086V15.1909C56.8086 12.3485 55.4175 10.9272 52.6353 10.9272C50.4432 10.9272 48.9437 11.8607 48.1367 13.7275V28H44.7944V8.45215H47.9561ZM76.3745 18.0454C76.3745 16.1304 76.7479 14.408 77.4946 12.8784C78.2534 11.3488 79.3013 10.1685 80.6382 9.3374C81.9871 8.50635 83.5228 8.09082 85.2451 8.09082C87.9069 8.09082 90.0568 9.01221 91.6948 10.855C93.3449 12.6978 94.1699 15.1488 94.1699 18.208V18.4429C94.1699 20.3459 93.8026 22.0562 93.0679 23.5737C92.3452 25.0793 91.3034 26.2536 89.9424 27.0967C88.5934 27.9398 87.0397 28.3613 85.2812 28.3613C82.6315 28.3613 80.4816 27.4399 78.8315 25.5972C77.1935 23.7544 76.3745 21.3154 76.3745 18.2803V18.0454ZM79.7349 18.4429C79.7349 20.6108 80.2347 22.3512 81.2344 23.6641C82.2461 24.9769 83.5951 25.6333 85.2812 25.6333C86.9795 25.6333 88.3285 24.9709 89.3281 23.646C90.3278 22.3091 90.8276 20.4422 90.8276 18.0454C90.8276 15.9015 90.3158 14.1672 89.292 12.8423C88.2803 11.5054 86.9313 10.8369 85.2451 10.8369C83.5951 10.8369 82.2642 11.4933 81.2524 12.8062C80.2407 14.119 79.7349 15.9979 79.7349 18.4429ZM101.523 8.45215L101.631 10.9092C103.125 9.03027 105.076 8.09082 107.485 8.09082C111.616 8.09082 113.7 10.4214 113.736 15.0825V28H110.394V15.0645C110.382 13.6553 110.056 12.6134 109.418 11.939C108.792 11.2645 107.81 10.9272 106.473 10.9272C105.389 10.9272 104.438 11.2163 103.619 11.7944C102.8 12.3726 102.161 13.1313 101.704 14.0708V28H98.3613V8.45215H101.523ZM124.232 18.9487L122.137 21.1348V28H118.794V0.25H122.137V17.0337L123.925 14.8838L130.014 8.45215H134.079L126.473 16.6182L134.964 28H131.043L124.232 18.9487Z" fill="black" />
</svg>
