<svg width="186" height="24" viewBox="0 0 186 24" fill="none" xmlns="http://www.w3.org/2000/svg">
<path d="M15.402 21V14.034H17.735L18.084 11.326H15.402V9.598C15.402 8.814 15.62 8.279 16.744 8.279H18.178V5.857C17.4838 5.78334 16.7861 5.74762 16.088 5.75C14.021 5.75 12.606 7.012 12.606 9.33V11.326H10.268V14.034H12.606V21H4C3.73478 21 3.48043 20.8946 3.29289 20.7071C3.10536 20.5196 3 20.2652 3 20V4C3 3.73478 3.10536 3.48043 3.29289 3.29289C3.48043 3.10536 3.73478 3 4 3H20C20.2652 3 20.5196 3.10536 20.7071 3.29289C20.8946 3.48043 21 3.73478 21 4V20C21 20.2652 20.8946 20.5196 20.7071 20.7071C20.5196 20.8946 20.2652 21 20 21H15.402Z" fill="white"/>
<path d="M76.1621 5.65593C75.3986 5.99362 74.589 6.2154 73.7601 6.31393C74.6338 5.79136 75.2878 4.96894 75.6001 3.99993C74.7801 4.48793 73.8811 4.82993 72.9441 5.01493C72.3147 4.34151 71.4804 3.89489 70.571 3.74451C69.6616 3.59413 68.728 3.74842 67.9153 4.18338C67.1026 4.61834 66.4564 5.30961 66.0772 6.14972C65.6979 6.98983 65.6068 7.93171 65.8181 8.82893C64.1552 8.74558 62.5284 8.31345 61.0433 7.56059C59.5583 6.80773 58.2482 5.75097 57.1981 4.45893C56.8263 5.09738 56.631 5.82315 56.6321 6.56193C56.6321 8.01193 57.3701 9.29293 58.4921 10.0429C57.8281 10.022 57.1787 9.84271 56.5981 9.51993V9.57193C56.5983 10.5376 56.9324 11.4735 57.5439 12.221C58.1554 12.9684 59.0065 13.4814 59.9531 13.6729C59.3367 13.84 58.6904 13.8646 58.0631 13.7449C58.3299 14.5762 58.8501 15.3031 59.5506 15.824C60.2512 16.3449 61.0972 16.6337 61.9701 16.6499C61.1025 17.3313 60.1092 17.8349 59.0469 18.1321C57.9846 18.4293 56.8742 18.5142 55.7791 18.3819C57.6908 19.6114 59.9161 20.264 62.1891 20.2619C69.8821 20.2619 74.0891 13.8889 74.0891 8.36193C74.0891 8.18193 74.0841 7.99993 74.0761 7.82193C74.8949 7.23009 75.6017 6.49695 76.1631 5.65693L76.1621 5.65593Z" fill="white"/>
<path d="M120 2C122.717 2 123.056 2.01 124.122 2.06C125.187 2.11 125.912 2.277 126.55 2.525C127.21 2.779 127.766 3.123 128.322 3.678C128.83 4.1779 129.224 4.78259 129.475 5.45C129.722 6.087 129.89 6.813 129.94 7.878C129.987 8.944 130 9.283 130 12C130 14.717 129.99 15.056 129.94 16.122C129.89 17.187 129.722 17.912 129.475 18.55C129.225 19.2178 128.831 19.8226 128.322 20.322C127.822 20.8303 127.217 21.2238 126.55 21.475C125.913 21.722 125.187 21.89 124.122 21.94C123.056 21.987 122.717 22 120 22C117.283 22 116.944 21.99 115.878 21.94C114.813 21.89 114.088 21.722 113.45 21.475C112.782 21.2245 112.178 20.8309 111.678 20.322C111.169 19.8222 110.776 19.2175 110.525 18.55C110.277 17.913 110.11 17.187 110.06 16.122C110.013 15.056 110 14.717 110 12C110 9.283 110.01 8.944 110.06 7.878C110.11 6.812 110.277 6.088 110.525 5.45C110.775 4.78218 111.169 4.17732 111.678 3.678C112.178 3.16923 112.782 2.77573 113.45 2.525C114.088 2.277 114.812 2.11 115.878 2.06C116.944 2.013 117.283 2 120 2ZM120 7C118.674 7 117.402 7.52678 116.464 8.46447C115.527 9.40215 115 10.6739 115 12C115 13.3261 115.527 14.5979 116.464 15.5355C117.402 16.4732 118.674 17 120 17C121.326 17 122.598 16.4732 123.536 15.5355C124.473 14.5979 125 13.3261 125 12C125 10.6739 124.473 9.40215 123.536 8.46447C122.598 7.52678 121.326 7 120 7ZM126.5 6.75C126.5 6.41848 126.368 6.10054 126.134 5.86612C125.899 5.6317 125.582 5.5 125.25 5.5C124.918 5.5 124.601 5.6317 124.366 5.86612C124.132 6.10054 124 6.41848 124 6.75C124 7.08152 124.132 7.39946 124.366 7.63388C124.601 7.8683 124.918 8 125.25 8C125.582 8 125.899 7.8683 126.134 7.63388C126.368 7.39946 126.5 7.08152 126.5 6.75ZM120 9C120.796 9 121.559 9.31607 122.121 9.87868C122.684 10.4413 123 11.2044 123 12C123 12.7956 122.684 13.5587 122.121 14.1213C121.559 14.6839 120.796 15 120 15C119.204 15 118.441 14.6839 117.879 14.1213C117.316 13.5587 117 12.7956 117 12C117 11.2044 117.316 10.4413 117.879 9.87868C118.441 9.31607 119.204 9 120 9Z" fill="white"/>
<path d="M183.543 6.498C184 8.28 184 12 184 12C184 12 184 15.72 183.543 17.502C183.289 18.487 182.546 19.262 181.605 19.524C179.896 20 174 20 174 20C174 20 168.107 20 166.395 19.524C165.45 19.258 164.708 18.484 164.457 17.502C164 15.72 164 12 164 12C164 12 164 8.28 164.457 6.498C164.711 5.513 165.454 4.738 166.395 4.476C168.107 4 174 4 174 4C174 4 179.896 4 181.605 4.476C182.55 4.742 183.292 5.516 183.543 6.498ZM172 15.5L178 12L172 8.5V15.5Z" fill="white"/>
</svg>
