<svg fill="#000000" xmlns="http://www.w3.org/2000/svg"  viewBox="0 0 50 50" width="40px" height="40px"><path d="M 21.28125 0.59375 C 21.171875 0.609375 21.066406 0.640625 20.96875 0.6875 C 18.21875 1.953125 16.898438 4.023438 16.34375 5.8125 C 16.191406 6.304688 16.183594 6.691406 16.125 7.125 C 16.019531 6.957031 15.910156 6.847656 15.8125 6.65625 C 15.253906 5.5625 14.863281 4.15625 14.90625 2.9375 C 14.929688 2.527344 14.699219 2.144531 14.328125 1.972656 C 13.957031 1.800781 13.515625 1.875 13.21875 2.15625 C 9.933594 5.171875 9.707031 8.554688 10.34375 11 C 10.617188 12.054688 11.003906 12.867188 11.34375 13.5625 C 11.203125 13.488281 11.082031 13.476563 10.9375 13.375 C 10.136719 12.804688 9.351563 11.839844 9.09375 10.25 C 9.039063 9.804688 8.691406 9.449219 8.246094 9.386719 C 7.804688 9.320313 7.371094 9.558594 7.1875 9.96875 C 4.996094 14.558594 5.539063 17.535156 6.65625 19.53125 C 7.214844 20.53125 7.863281 21.292969 8.28125 21.9375 C 8.699219 22.582031 8.878906 23.019531 8.8125 23.59375 C 8.8125 23.625 8.8125 23.65625 8.8125 23.6875 C 8.71875 27.683594 6.882813 29.917969 5.0625 31.28125 C 3.242188 32.644531 1.5 33.03125 1.5 33.03125 C 1.222656 33.089844 0.984375 33.261719 0.839844 33.503906 C 0.699219 33.75 0.664063 34.042969 0.75 34.3125 C 0.75 34.3125 1.183594 35.625 2.3125 36.84375 C 3.25 37.851563 4.78125 38.765625 6.8125 38.875 C 6.351563 40.914063 4.28125 42 4.28125 42 C 3.945313 42.164063 3.726563 42.503906 3.71875 42.882813 C 3.714844 43.257813 3.917969 43.605469 4.25 43.78125 C 4.25 43.78125 8.335938 45.742188 12.15625 44 C 12.128906 46.179688 11.15625 47.34375 11.15625 47.34375 C 10.894531 47.644531 10.835938 48.066406 11.007813 48.425781 C 11.175781 48.785156 11.539063 49.011719 11.9375 49 C 15.425781 48.90625 17.707031 47.011719 18.65625 46.15625 C 18.671875 46.183594 18.671875 46.160156 18.6875 46.1875 C 18.929688 46.632813 19.171875 47.398438 18.90625 48.8125 C 18.847656 49.121094 18.933594 49.4375 19.144531 49.671875 C 19.351563 49.902344 19.65625 50.023438 19.96875 50 C 20.515625 49.953125 21.007813 49.765625 21.59375 49.5 C 22.179688 49.234375 22.824219 48.878906 23.46875 48.46875 C 24.375 47.890625 25.199219 47.179688 25.90625 46.40625 C 27.546875 48.09375 30.015625 48.742188 32.78125 48.1875 C 33.1875 48.105469 33.503906 47.78125 33.574219 47.375 C 33.644531 46.964844 33.453125 46.554688 33.09375 46.34375 C 33.09375 46.34375 32.429688 45.933594 31.875 45.15625 C 31.320313 44.378906 30.898438 43.382813 31.4375 41.84375 C 31.769531 40.941406 31.984375 40.816406 31.90625 40.84375 C 31.992188 40.859375 32.183594 40.914063 32.4375 41 C 32.945313 41.171875 33.742188 41.40625 34.71875 41.28125 C 35.652344 41.164063 36.738281 40.699219 37.96875 39.78125 C 38.050781 39.921875 38.144531 40.144531 38.25 40.53125 C 38.511719 41.511719 38.59375 42.75 38.59375 42.75 C 38.609375 43.160156 38.871094 43.519531 39.257813 43.65625 C 39.640625 43.792969 40.074219 43.683594 40.34375 43.375 C 40.34375 43.375 41.449219 42.152344 42.59375 40.625 C 43.738281 39.097656 44.96875 37.386719 45.1875 35.71875 C 45.222656 35.492188 45.179688 35.261719 45.0625 35.0625 C 44.144531 33.570313 42.632813 32.894531 41.125 32.625 C 41.324219 31.730469 41.40625 30.34375 40.6875 28.90625 C 39.6875 31.304688 37.90625 32.5 37.90625 32.5 C 37.300781 32.53125 36.699219 32.554688 36.15625 32.59375 C 36.144531 32.59375 36.136719 32.59375 36.125 32.59375 C 34.925781 32.660156 33.96875 32.613281 33.3125 32.4375 C 32.648438 32.261719 32.308594 32.007813 32.0625 31.625 C 31.570313 30.863281 31.5 29.011719 32.375 25.75 C 32.375 25.738281 32.375 25.730469 32.375 25.71875 C 32.652344 24.53125 33.546875 23.449219 34.5 23.125 C 35.453125 22.800781 36.574219 22.960938 37.90625 24.78125 C 38.992188 26.289063 40.636719 27 42.15625 27.28125 C 42.347656 27.980469 42.542969 29.058594 42.59375 30.6875 C 43.734375 29.988281 44.523438 28.4375 44.96875 27.34375 C 44.988281 27.339844 45.011719 27.347656 45.03125 27.34375 C 45.695313 27.253906 46.164063 27.207031 46.6875 26.8125 C 46.875 26.671875 47.898438 26.15625 48.46875 24.84375 C 49.015625 23.59375 49.292969 21.5625 49.1875 18.0625 C 49.46875 17.726563 49.820313 17.292969 49.90625 16.53125 C 49.957031 16.066406 49.824219 15.535156 49.5 15.125 C 49.183594 14.726563 48.746094 14.410156 48.1875 14.125 C 48.179688 14.121094 48.164063 14.097656 48.15625 14.09375 C 46.644531 13.238281 44.066406 12.417969 40.40625 11.8125 C 40.027344 11.027344 39.617188 10.246094 39.15625 9.6875 C 38.578125 8.988281 38.128906 8.550781 37.625 8.25 C 37.046875 7.886719 36.621094 7.875 35.90625 7.78125 C 35.191406 7.6875 34.277344 7.621094 33.25 7.5625 C 31.195313 7.449219 28.613281 7.40625 26 7.40625 C 25.265625 7.40625 23.863281 7.03125 23 6.21875 C 22.136719 5.40625 21.582031 4.242188 22.34375 1.90625 C 22.453125 1.582031 22.386719 1.222656 22.171875 0.957031 C 21.957031 0.691406 21.621094 0.554688 21.28125 0.59375 Z M 20.0625 3.8125 C 20.085938 5.460938 20.699219 6.8125 21.625 7.6875 C 22.988281 8.972656 24.734375 9.40625 26 9.40625 C 28.585938 9.40625 31.160156 9.453125 33.15625 9.5625 C 34.152344 9.617188 34.996094 9.699219 35.625 9.78125 C 36.097656 9.84375 36.503906 9.960938 36.59375 9.96875 C 36.589844 9.96875 37.121094 10.394531 37.59375 10.96875 C 38.066406 11.542969 38.578125 12.300781 38.875 13.0625 C 39.003906 13.394531 39.304688 13.632813 39.65625 13.6875 C 43.472656 14.273438 46 15.179688 47.21875 15.875 C 47.230469 15.886719 47.238281 15.894531 47.25 15.90625 C 47.667969 16.117188 47.855469 16.277344 47.90625 16.34375 C 47.890625 16.351563 47.726563 16.667969 47.40625 17.09375 C 47.257813 17.28125 47.179688 17.511719 47.1875 17.75 C 47.335938 21.429688 47.011719 23.21875 46.65625 24.03125 C 46.300781 24.84375 46.113281 24.726563 45.5 25.1875 C 45.625 25.09375 45.238281 25.308594 44.75 25.375 C 44.261719 25.441406 43.628906 25.453125 42.96875 25.375 C 41.644531 25.222656 40.277344 24.710938 39.5 23.625 C 37.832031 21.347656 35.648438 20.648438 33.875 21.25 C 32.113281 21.847656 30.867188 23.449219 30.4375 25.25 C 30.433594 25.257813 30.441406 25.273438 30.4375 25.28125 C 29.523438 28.699219 29.292969 31.039063 30.375 32.71875 C 30.917969 33.5625 31.785156 34.109375 32.78125 34.375 C 33.777344 34.640625 34.917969 34.671875 36.25 34.59375 C 36.261719 34.59375 36.269531 34.59375 36.28125 34.59375 C 37.699219 34.492188 39.214844 34.355469 40.5 34.53125 C 41.605469 34.683594 42.425781 35.089844 43.03125 35.8125 C 42.808594 36.574219 41.988281 38.085938 41 39.40625 C 40.617188 39.917969 40.578125 39.941406 40.25 40.34375 C 40.21875 40.191406 40.226563 40.183594 40.1875 40.03125 C 40.019531 39.394531 39.835938 38.761719 39.3125 38.21875 C 39.050781 37.949219 38.636719 37.679688 38.15625 37.65625 C 37.6875 37.636719 37.25 37.863281 36.90625 38.125 L 36.875 38.125 L 36.875 38.09375 C 35.773438 38.941406 35.019531 39.242188 34.46875 39.3125 C 33.917969 39.382813 33.546875 39.246094 33.09375 39.09375 C 32.867188 39.015625 32.625 38.9375 32.3125 38.875 C 32 38.8125 31.5625 38.800781 31.15625 38.96875 C 30.347656 39.308594 29.96875 40.042969 29.5625 41.15625 C 28.824219 43.253906 29.402344 45.035156 30.1875 46.1875 C 28.714844 46.039063 27.476563 45.546875 26.75 44.375 C 26.5625 44.074219 26.234375 43.894531 25.882813 43.902344 C 25.527344 43.910156 25.207031 44.101563 25.03125 44.40625 C 24.644531 45.074219 23.542969 46.054688 22.40625 46.78125 C 21.894531 47.109375 21.386719 47.382813 20.9375 47.59375 C 20.910156 46.625 20.773438 45.78125 20.46875 45.21875 C 20.007813 44.367188 19.3125 43.9375 19.3125 43.9375 C 18.917969 43.703125 18.417969 43.769531 18.09375 44.09375 C 18.09375 44.09375 16.160156 45.832031 13.71875 46.59375 C 14.101563 45.515625 14.394531 44.109375 14.09375 42.34375 C 14.039063 41.988281 13.800781 41.6875 13.464844 41.558594 C 13.128906 41.429688 12.746094 41.488281 12.46875 41.71875 C 10.476563 43.324219 8.40625 42.980469 6.90625 42.53125 C 8.015625 41.570313 9.136719 40.136719 9 37.84375 C 8.984375 37.566406 8.855469 37.308594 8.640625 37.128906 C 8.429688 36.953125 8.152344 36.871094 7.875 36.90625 C 5.792969 37.167969 4.601563 36.382813 3.78125 35.5 C 3.355469 35.039063 3.367188 34.910156 3.1875 34.5625 C 4.019531 34.25 5.117188 33.75 6.28125 32.875 C 8.445313 31.253906 10.644531 28.355469 10.78125 23.8125 C 10.78125 23.777344 10.8125 23.753906 10.8125 23.71875 L 10.78125 23.71875 C 10.878906 22.585938 10.441406 21.625 9.9375 20.84375 C 9.417969 20.039063 8.847656 19.351563 8.40625 18.5625 C 7.710938 17.320313 7.285156 15.804688 8.09375 13.1875 C 8.570313 13.953125 9.167969 14.5625 9.78125 15 C 10.378906 15.425781 10.980469 15.695313 11.5625 15.84375 C 12.144531 15.992188 12.699219 16.074219 13.28125 15.84375 C 13.460938 15.765625 13.613281 15.632813 13.71875 15.46875 C 13.972656 15.113281 13.9375 14.777344 13.90625 14.5625 C 13.875 14.347656 13.8125 14.1875 13.75 14.03125 C 13.625 13.722656 13.488281 13.417969 13.3125 13.0625 C 12.957031 12.351563 12.539063 11.488281 12.28125 10.5 C 11.878906 8.949219 11.851563 7.203125 13.1875 5.28125 C 13.390625 6.101563 13.675781 6.898438 14.03125 7.59375 C 14.378906 8.273438 14.78125 8.863281 15.21875 9.34375 C 15.65625 9.824219 16.117188 10.222656 16.78125 10.375 C 17.105469 10.453125 17.445313 10.363281 17.691406 10.136719 C 17.933594 9.910156 18.050781 9.578125 18 9.25 C 17.960938 8.984375 17.828125 7.769531 18.25 6.40625 C 18.523438 5.527344 19.15625 4.640625 20.0625 3.8125 Z M 32.3125 14.40625 C 32.3125 14.40625 32.699219 16.898438 35 17.5 C 35.5 16.300781 36.6875 14.800781 37.1875 14.5 C 35.386719 14.699219 32.3125 14.40625 32.3125 14.40625 Z"/></svg>